{"title":"The Last Stand 2013 HDRip XviD AC3 - TODE","uid":8396520,"size":732808635,"categoryP":"video","categoryS":"movies","magnet":"?xt=urn:btih:8f2a6e526d8cf5a86ca88fff06c170d7a9572155&amp;dn=The+Last+Stand+2013+HDRip+XviD+AC3+-+TODE&amp;tr=udp%3A%2F%2Ftracker.openbittorrent.com%3A80&amp;tr=udp%3A%2F%2Fopen.demonii.com%3A1337&amp;tr=udp%3A%2F%2Ftracker.coppersurfer.tk%3A6969&amp;tr=udp%3A%2F%2Fexodus.desync.com%3A6969","seeders":1,"leechers":0,"uploader":"xxxlavalxxx","files":-1,"time":1366585590,"description":"\n &lt;a href=&quot;\nhttp://www.imdb.com/title/tt1549920/&quot; rel=&quot;nofollow&quot; target=&quot;_NEW&quot;&gt;\nhttp://www.imdb.com/title/tt1549920/&lt;/a&gt;\n\n\nThe leader of a drug cartel busts out of a courthouse and speeds to the Mexican border, where the only thing in his path is a sheriff and his inexperienced staff.\n \n\n\nDirector: \nJee-woon Kim\n\n Writers: \nAndrew Knauer (screenplay), Jeffrey Nachmanoff (rewrite) \n\nStars:\n Arnold Schwarzenegger, Forest Whitaker and Johnny Knoxville\n\nGenres:\n Action | Crime | Thriller \n\n\n\n\nFormat                                   : AVI\nFormat/Info                              : Audio Video Interleave\nFile size                                : 699 MiB\nDuration                                 : 1h 47mn\nOverall bit rate                         : 913 Kbps\nWriting application                      : Lavf54.59.103\n\nVideo\nID                                       : 0\nFormat                                   : MPEG-4 Visual\nFormat profile                           : Simple@L3\nFormat settings, BVOP                    : No\nFormat settings, QPel                    : No\nFormat settings, GMC                     : No warppoints\nFormat settings, Matrix                  : Default (H.263)\nCodec ID                                 : XVID\nCodec ID/Hint                            : XviD\nDuration                                 : 1h 47mn\nBit rate                                 : 774 Kbps\nWidth                                    : 640 pixels\nHeight                                   : 256 pixels\nDisplay aspect ratio                     : 2.35:1\nFrame rate                               : 24.000 fps\nColor space                              : YUV\nChroma subsampling                       : 4:2:0\nBit depth                                : 8 bits\nScan type                                : Progressive\nCompression mode                         : Lossy\nBits/(Pixel*Frame)                       : 0.197\nStream size                              : 593 MiB (85%)\nWriting library                          : XviD 64\n\nAudio\nID                                       : 1\nFormat                                   : AC-3\nFormat/Info                              : Audio Coding 3\nMode extension                           : CM (complete main)\nFormat settings, Endianness              : Big\nCodec ID                                 : 2000\nDuration                                 : 1h 47mn\nBit rate mode                            : Constant\nBit rate                                 : 128 Kbps\nChannel(s)                               : 2 channels\nChannel positions                        : Front: L R\nSampling rate                            : 48.0 KHz\nBit depth                                : 16 bits\nCompression mode                         : Lossy\nStream size                              : 98.0 MiB (14%)\nAlignment                                : Aligned on interleaves\nInterleave, duration                     : 32 ms (0.77 video frame)\n\n\n\n    &lt;a href=&quot;\thttp://www.shotpix.com/images/86673849875692564806.png&quot; rel=&quot;nofollow&quot; target=&quot;_NEW&quot;&gt;\thttp://www.shotpix.com/images/86673849875692564806.png&lt;/a&gt;\n    &lt;a href=&quot;\thttp://www.shotpix.com/images/52459580770815308923.png&quot; rel=&quot;nofollow&quot; target=&quot;_NEW&quot;&gt;\thttp://www.shotpix.com/images/52459580770815308923.png&lt;/a&gt;\n    &lt;a href=&quot;\thttp://www.shotpix.com/images/31612390570311711174.png&quot; rel=&quot;nofollow&quot; target=&quot;_NEW&quot;&gt;\thttp://www.shotpix.com/images/31612390570311711174.png&lt;/a&gt;\n    &lt;a href=&quot;\thttp://www.shotpix.com/images/75397590523980363649.png&quot; rel=&quot;nofollow&quot; target=&quot;_NEW&quot;&gt;\thttp://www.shotpix.com/images/75397590523980363649.png&lt;/a&gt;\n    &lt;a href=&quot;\thttp://www.shotpix.com/images/23780146296414762094.png&quot; rel=&quot;nofollow&quot; target=&quot;_NEW&quot;&gt;\thttp://www.shotpix.com/images/23780146296414762094.png&lt;/a&gt;\n    &lt;a href=&quot;\thttp://www.shotpix.com/images/95587153132252318748.png&quot; rel=&quot;nofollow&quot; target=&quot;_NEW&quot;&gt;\thttp://www.shotpix.com/images/95587153132252318748.png&lt;/a&gt;","torrent":{"xt":"urn:btih:8f2a6e526d8cf5a86ca88fff06c170d7a9572155","amp;dn":"The+Last+Stand+2013+HDRip+XviD+AC3+-+TODE","amp;tr":["udp%3A%2F%2Ftracker.openbittorrent.com%3A80","udp%3A%2F%2Fopen.demonii.com%3A1337","udp%3A%2F%2Ftracker.coppersurfer.tk%3A6969","udp%3A%2F%2Fexodus.desync.com%3A6969"],"infoHash":"8f2a6e526d8cf5a86ca88fff06c170d7a9572155","infoHashBuffer":{"type":"Buffer","data":[143,42,110,82,109,140,245,168,108,168,143,255,6,193,112,215,169,87,33,85]},"announce":[],"urlList":[]}}